<?xml version="1.0" encoding="UTF-8"?>
<svg width="1200" height="600" viewBox="0 0 1200 600" xmlns="http://www.w3.org/2000/svg">
    <!-- Background -->
    <rect width="1200" height="600" fill="#E0F7FA"/>
    <!-- Hills -->
    <path d="M0 400 Q300 300 600 400 Q900 300 1200 400 L1200 600 L0 600 Z" fill="#4CAF50"/>
    <!-- Sun -->
    <circle cx="100" cy="100" r="50" fill="#FFD700"/>
    <!-- Tree -->
    <rect x="150" y="350" width="30" height="150" fill="#8B4513"/>
    <circle cx="165" cy="300" r="50" fill="#228B22"/>
    <circle cx="135" cy="320" r="40" fill="#228B22"/>
    <circle cx="195" cy="320" r="40" fill="#228B22"/>
    <!-- Wind Turbine -->
    <rect x="400" y="300" width="20" height="200" fill="#BDBDBD"/>
    <g transform="translate(410, 300)">
        <animateTransform attributeName="transform" type="rotate" from="0 0 0" to="360 0 0" dur="10s" repeatCount="indefinite"/>
        <path d="M0 0 L100 20 L100 -20 Z" fill="#FFFFFF"/>
        <path d="M0 0 L-100 20 L-100 -20 Z" fill="#FFFFFF" transform="rotate(120)"/>
        <path d="M0 0 L100 20 L100 -20 Z" fill="#FFFFFF" transform="rotate(240)"/>
    </g>
    <!-- Solar Panel -->
    <rect x="600" y="400" width="100" height="60" fill="#1976D2" transform="rotate(-30 650 430)"/>
    <rect x="710" y="400" width="100" height="60" fill="#1976D2" transform="rotate(-30 760 430)"/>
    <!-- Electric Car -->
    <g id="car">
        <rect x="0" y="450" width="200" height="50" fill="#2196F3" rx="10"/>
        <circle cx="50" cy="500" r="20" fill="#424242"/>
        <circle cx="150" cy="500" r="20" fill="#424242"/>
        <animateTransform attributeName="transform" type="translate" from="-250 0" to="1250 0" dur="20s" repeatCount="indefinite"/>
    </g>
</svg> 